<?xml version="1.0" standalone="no"?>
<!DOCTYPE svg PUBLIC "-//W3C//DTD SVG 1.0//EN" "http://www.w3.org/TR/2001/REC-SVG-20010904/DTD/svg10.dtd">
<svg xmlns="http://www.w3.org/2000/svg" xmlns:xlink="http://www.w3.org/1999/xlink" id="body_1" width="300" height="225">

<defs>
        <clipPath  id="1">

            <path clip-rule="evenodd" transform="matrix(2.257794 0 0 2.257794 0 105.5011)"  d="M0 0L453.54 0L453.54 246.7L0 246.7L0 0z" />        </clipPath>
</defs>

<g transform="matrix(0.2929688 0 0 0.2929688 0 0)">
	<g clip-path="url(#1)" >
        <path transform="matrix(2.257794 0 0 2.257794 0 105.5011)"  d="M250.62 146.71C 248.5325 146.7115 246.6823 145.3663 246.04 143.38L246.04 143.38L236.34 113.54C 235.7718 111.8949 236.1346 110.0713 237.2893 108.7689C 238.4439 107.4666 240.2109 106.8879 241.9122 107.2549C 243.6136 107.6218 244.9849 108.8775 245.5 110.54L245.5 110.54L255.2 140.39C 255.6823 141.8559 255.4303 143.4643 254.5229 144.7126C 253.6154 145.9608 252.1632 146.6966 250.62 146.69" stroke="none" fill="#B80A2E" fill-rule="nonzero" />
        <path transform="matrix(2.257794 0 0 2.257794 0 105.5011)"  d="M224.63 66.73C 222.5425 66.73146 220.6923 65.38625 220.05 63.4L220.05 63.4L210.35 33.56C 209.5216 31.02778 210.9028 28.30343 213.435 27.475C 215.9672 26.64658 218.6916 28.02778 219.52 30.56L219.52 30.56L229.21 60.41C 229.6923 61.87592 229.4403 63.48432 228.5329 64.73254C 227.6254 65.98077 226.1732 66.71657 224.63 66.71001" stroke="none" fill="#B80A2E" fill-rule="nonzero" />
        <path transform="matrix(2.257794 0 0 2.257794 0 105.5011)"  d="M308.78 62.19C 308.17 60.29 306.41 58.03 301.53 58.03L301.53 58.03L249.88 58.09C 248.7029 58.10065 247.6495 57.36088 247.26 56.25L247.26 56.25L230 3.33C 229.1408 0.8423433 226.445 -0.4962182 223.9439 0.3229275C 221.4428 1.142073 220.0611 3.816049 220.84 6.33L220.84 6.33L238.04 59.25C 239.6996 64.30374 244.4108 67.72532 249.73 67.74L249.73 67.74L292.03 67.74L257.83 92.51C 253.5288 95.64386 251.726 101.1853 253.36 106.25L253.36 106.25L270.57 159.25C 271.3984 161.7822 274.1227 163.1634 276.655 162.335C 279.1872 161.5066 280.5684 158.7822 279.74 156.25L279.74 156.25L262.55 103.36C 262.173 102.244 262.5515 101.0119 263.49 100.3L263.49 100.3L305.38 69.92001C 308.43 67.72001 309.67 64.92001 308.78 62.18001" stroke="none" fill="#E4003A" fill-rule="nonzero" />
        <path transform="matrix(2.257794 0 0 2.257794 0 105.5011)"  d="M176.28 162C 175.1203 162.0043 173.9904 161.6324 173.06 160.94C 170.75 159.26 170.06 156.25 171.26 152.67L171.26 152.67L187.4 103.32C 187.7419 102.2091 187.3401 101.0036 186.4 100.32L186.4 100.32L144.4 69.94C 140.4 67.07 140.34 64.21 140.95 62.31C 141.84 59.6 144.49 58.05 148.24 58.05L148.24 58.05L205.59 58.16C 207.3626 58.07919 209.0362 58.97884 209.9467 60.50189C 210.8571 62.02494 210.8571 63.92506 209.9467 65.44811C 209.0362 66.97117 207.3626 67.87082 205.59 67.79L205.59 67.79L157.73 67.7L192.1 92.58C 196.4162 95.7075 198.222 101.2623 196.57 106.33L196.57 106.33L183.38 146.65L222 118.43C 224.1512 116.8615 227.1665 117.3339 228.735 119.485C 230.3035 121.6361 229.8311 124.6515 227.68 126.22L227.68 126.22L181.38 160C 179.9386 161.1966 178.1505 161.8978 176.28 162" stroke="none" fill="#8B0C20" fill-rule="nonzero" />
        <path transform="matrix(2.257794 0 0 2.257794 0 105.5011)"  d="M37.05 246.11L50 246.11L50 190.75L37.05 190.75L37.05 212.19L12.92 212.19L12.92 190.75L0 190.75L0 246.11L12.92 246.11L12.92 223.11L37.05 223.11L37.05 246.11zM117.94 246.11L97.32 197C 95.24 192.08 92.43 190.16 87.32 190.16C 82.21 190.16 79.46 191.95 77.32 197L77.32 197L56.71 246.11L70.43 246.11L87.32 203.41L104.21 246.11zM150.16 240.11L170 190.75L156 190.75L140.33 233.11L124.67 190.75L110.67 190.75L130.49 240.06C 132.26 244.53 135.49 246.7 140.35 246.7C 145.21 246.7 148.45 244.53 150.22 240.07M185.95 246.07L221.77 246.07L221.77 235.2L191.87 235.2C 189.73 235.2 189.67 235.14 189.67 233L189.67 233L189.67 223.32L220.67 223.32L220.67 212.42L189.67 212.42L189.67 203.86C 189.67 201.72 189.73 201.66 191.87 201.66L191.87 201.66L221.41 201.66L221.41 190.75L185.89 190.75C 179.89 190.75 176.74 193.99 176.74 200.13L176.74 200.13L176.74 236.73C 176.74 242.86 179.91 246.11 185.89 246.11M240 246.11L275.6 246.11L275.6 235.2L246 235.2C 243.85 235.2 243.79 235.14 243.79 233L243.79 233L243.79 190.75L230.85 190.75L230.85 236.75C 230.85 242.88 234.01 246.13 240 246.13M293.28 207C 293.1263 205.0841 294.0565 203.243 295.69 202.23C 296.88 201.64 298.69 201.47 303.69 201.47L303.69 201.47L326.16 201.47L326.16 190.77L301.09 190.77C 294.46 190.77 291.47 191.1 288.77 192.11C 283.22 194.21 279.49 200.33 279.49 207.32C 279.3993 212.1562 281.4665 216.7816 285.13 219.94C 287.99 222.29 292.31 223.39 298.73 223.39L298.73 223.39L306.44 223.39C 309.14 223.39 311.14 223.73 312.25 224.39C 314.1887 225.4123 315.3759 227.4493 315.31 229.64C 315.4022 231.5619 314.3834 233.3663 312.69 234.28C 311.44 235.09 309.23 235.42 305.06 235.42L305.06 235.42L282.06 235.42L282.06 246.12L307.56 246.12C 316.08 246.12 319.56 245.53 322.43 243.58C 326.58 240.7 329.16 235.36 329.16 229.64C 329.16 224.55 327.37 219.58 324.6 216.98C 321.31 213.85 317.11 212.68 309.1 212.68L309.1 212.68L302.69 212.68C 298.69 212.68 296.86 212.39 295.48 211.55C 294.0198 210.4994 293.1826 208.7876 293.25 206.99L293.25 206.99L379.72 246.12L393.44 246.12L372.86 197C 370.77 192.08 367.97 190.16 362.86 190.16C 357.75 190.16 355 191.95 352.86 197L352.86 197L332.25 246.12L346 246.12L362.89 203.42L379.78 246.12zM453.57 237.79L453.57 190.79L440.92 190.79L440.92 228.79L419.55 195C 417.55 191.7 414.48 190.16 409.95 190.16C 404.08 190.16 400.43 193.47 400.43 198.79L400.43 198.79L400.43 246.12L413.05 246.12L413.05 207.69L434.51 241.58C 437.38 246.12 441.22 246.7 444.24 246.7C 449.98 246.7 453.54 243.28 453.54 237.78" stroke="none" fill="#113B6A" fill-rule="nonzero" />
	</g>
</g>
</svg>